<svg xmlns="http://www.w3.org/2000/svg" xmlns:xlink="http://www.w3.org/1999/xlink" width="500" zoomAndPan="magnify" viewBox="0 0 375 374.999991" height="500" preserveAspectRatio="xMidYMid meet" version="1.0"><defs><g/></defs><g fill="#b35160" fill-opacity="1"><g transform="translate(31.012898, 306.423445)"><g><path d="M 236.609375 -190.601562 C 238.484375 -188.722656 239.738281 -188.410156 241.929688 -189.976562 L 266.652344 -209.066406 C 268.84375 -210.632812 268.84375 -213.761719 266.964844 -215.324219 L 252.882812 -229.722656 C 251.003906 -231.601562 248.1875 -231.289062 246.308594 -229.097656 L 227.21875 -204.683594 C 225.652344 -202.492188 225.96875 -201.242188 228.15625 -199.050781 Z M 145.84375 -229.410156 C 146.160156 -226.90625 147.410156 -226.28125 150.226562 -226.28125 L 162.433594 -226.28125 C 164.9375 -226.28125 165.875 -226.90625 166.5 -229.410156 L 170.570312 -260.394531 C 170.882812 -263.210938 169.003906 -265.402344 166.5 -265.402344 L 145.84375 -265.402344 C 143.34375 -265.402344 141.464844 -263.210938 142.089844 -260.394531 Z M 70.730469 -189.660156 C 72.921875 -188.097656 73.863281 -188.410156 76.050781 -190.289062 L 84.816406 -199.050781 C 86.695312 -200.929688 86.695312 -201.867188 85.128906 -204.058594 L 66.351562 -229.097656 C 64.785156 -230.972656 61.65625 -231.289062 59.777344 -229.410156 L 45.382812 -215.011719 C 43.503906 -213.136719 43.816406 -210.003906 46.007812 -208.753906 Z M 49.136719 -124.5625 C 49.136719 -127.378906 48.511719 -128.320312 45.382812 -128.632812 L 14.710938 -133.015625 C 12.207031 -133.328125 10.015625 -131.136719 10.015625 -128.632812 L 10.015625 -108.289062 C 10.015625 -105.785156 12.207031 -103.59375 14.710938 -104.21875 L 45.382812 -108.289062 C 48.511719 -108.601562 49.136719 -109.539062 49.136719 -112.671875 Z M 76.367188 -46.945312 C 74.488281 -48.824219 73.234375 -49.136719 71.046875 -47.257812 L 46.320312 -28.792969 C 44.128906 -26.914062 44.128906 -24.097656 46.007812 -22.222656 L 60.402344 -7.824219 C 62.28125 -5.945312 65.097656 -5.945312 66.664062 -8.449219 L 85.441406 -32.863281 C 87.320312 -35.054688 87.007812 -36.304688 84.816406 -38.496094 Z M 167.128906 -7.824219 C 166.816406 -10.640625 165.5625 -11.265625 162.746094 -11.265625 L 150.539062 -11.265625 C 148.035156 -11.265625 147.097656 -10.640625 146.160156 -7.824219 L 142.402344 22.847656 C 142.089844 25.351562 143.96875 27.855469 146.785156 27.855469 L 166.816406 27.855469 C 169.320312 27.855469 171.195312 25.351562 170.882812 22.847656 Z M 156.488281 -208.441406 C 107.035156 -208.441406 66.976562 -168.378906 66.976562 -118.929688 C 66.976562 -69.480469 107.035156 -29.417969 156.488281 -29.417969 C 205.9375 -29.417969 245.996094 -69.480469 245.996094 -118.929688 C 245.996094 -168.378906 205.9375 -208.441406 156.488281 -208.441406 Z M 242.554688 -47.570312 C 240.050781 -49.449219 239.113281 -49.449219 236.921875 -47.257812 L 228.15625 -38.496094 C 226.28125 -36.929688 226.28125 -35.679688 227.84375 -33.175781 L 246.625 -8.761719 C 248.1875 -6.574219 251.316406 -6.257812 253.195312 -8.136719 L 267.28125 -22.222656 C 269.15625 -24.097656 268.84375 -27.230469 266.964844 -28.792969 Z M 267.28125 -129.257812 C 264.460938 -128.945312 263.835938 -128.007812 263.835938 -125.1875 L 263.835938 -112.984375 C 263.835938 -110.167969 264.460938 -109.226562 267.28125 -108.601562 L 298.265625 -104.53125 C 300.769531 -104.21875 302.957031 -106.410156 302.957031 -108.914062 L 302.957031 -128.945312 C 302.957031 -131.761719 300.769531 -133.640625 298.265625 -133.328125 Z M 267.28125 -129.257812 "/></g></g></g></svg>