<svg xmlns="http://www.w3.org/2000/svg" xmlns:xlink="http://www.w3.org/1999/xlink" width="500" zoomAndPan="magnify" viewBox="0 0 375 374.999991" height="500" preserveAspectRatio="xMidYMid meet" version="1.0"><defs><g/></defs><g fill="#ffffff" fill-opacity="1"><g transform="translate(0.0117232, 245.708933)"><g><path d="M 122.570312 -98.734375 C 123.542969 -97.761719 124.191406 -97.601562 125.324219 -98.410156 L 138.132812 -108.300781 C 139.265625 -109.113281 139.265625 -110.734375 138.292969 -111.542969 L 131 -119 C 130.027344 -119.972656 128.566406 -119.8125 127.59375 -118.675781 L 117.703125 -106.03125 C 116.894531 -104.898438 117.054688 -104.246094 118.191406 -103.113281 Z M 75.550781 -118.839844 C 75.714844 -117.542969 76.363281 -117.21875 77.820312 -117.21875 L 84.144531 -117.21875 C 85.441406 -117.21875 85.925781 -117.542969 86.25 -118.839844 L 88.359375 -134.890625 C 88.523438 -136.347656 87.550781 -137.484375 86.25 -137.484375 L 75.550781 -137.484375 C 74.253906 -137.484375 73.28125 -136.347656 73.605469 -134.890625 Z M 36.640625 -98.25 C 37.777344 -97.4375 38.261719 -97.601562 39.398438 -98.574219 L 43.9375 -103.113281 C 44.910156 -104.085938 44.910156 -104.570312 44.097656 -105.707031 L 34.371094 -118.675781 C 33.558594 -119.648438 31.9375 -119.8125 30.964844 -118.839844 L 23.507812 -111.382812 C 22.535156 -110.410156 22.699219 -108.789062 23.832031 -108.140625 Z M 25.453125 -64.527344 C 25.453125 -65.984375 25.128906 -66.472656 23.507812 -66.632812 L 7.621094 -68.902344 C 6.324219 -69.066406 5.1875 -67.929688 5.1875 -66.632812 L 5.1875 -56.097656 C 5.1875 -54.800781 6.324219 -53.664062 7.621094 -53.988281 L 23.507812 -56.097656 C 25.128906 -56.257812 25.453125 -56.746094 25.453125 -58.367188 Z M 39.558594 -24.320312 C 38.585938 -25.292969 37.9375 -25.453125 36.804688 -24.480469 L 23.996094 -14.914062 C 22.859375 -13.941406 22.859375 -12.484375 23.832031 -11.511719 L 31.289062 -4.054688 C 32.261719 -3.082031 33.722656 -3.082031 34.53125 -4.378906 L 44.261719 -17.023438 C 45.234375 -18.160156 45.070312 -18.808594 43.9375 -19.941406 Z M 86.574219 -4.054688 C 86.414062 -5.511719 85.765625 -5.835938 84.304688 -5.835938 L 77.984375 -5.835938 C 76.6875 -5.835938 76.199219 -5.511719 75.714844 -4.054688 L 73.769531 11.835938 C 73.605469 13.132812 74.578125 14.429688 76.039062 14.429688 L 86.414062 14.429688 C 87.710938 14.429688 88.683594 13.132812 88.523438 11.835938 Z M 81.0625 -107.976562 C 55.449219 -107.976562 34.695312 -87.222656 34.695312 -61.609375 C 34.695312 -35.992188 55.449219 -15.238281 81.0625 -15.238281 C 106.679688 -15.238281 127.433594 -35.992188 127.433594 -61.609375 C 127.433594 -87.222656 106.679688 -107.976562 81.0625 -107.976562 Z M 125.648438 -24.644531 C 124.351562 -25.617188 123.867188 -25.617188 122.730469 -24.480469 L 118.191406 -19.941406 C 117.21875 -19.132812 117.21875 -18.484375 118.027344 -17.183594 L 127.757812 -4.539062 C 128.566406 -3.40625 130.1875 -3.242188 131.160156 -4.214844 L 138.457031 -11.511719 C 139.429688 -12.484375 139.265625 -14.105469 138.292969 -14.914062 Z M 138.457031 -66.957031 C 136.996094 -66.796875 136.671875 -66.308594 136.671875 -64.851562 L 136.671875 -58.527344 C 136.671875 -57.070312 136.996094 -56.582031 138.457031 -56.257812 L 154.507812 -54.152344 C 155.804688 -53.988281 156.9375 -55.125 156.9375 -56.421875 L 156.9375 -66.796875 C 156.9375 -68.253906 155.804688 -69.226562 154.507812 -69.066406 Z M 138.457031 -66.957031 "/></g></g></g><g fill="#ffffff" fill-opacity="1"><g transform="translate(162.1289, 245.708933)"><g><path d="M 22.21875 1.140625 C 19.507812 1.140625 17.265625 0.191406 15.484375 -1.703125 C 13.703125 -3.597656 12.8125 -5.84375 12.8125 -8.4375 C 12.8125 -11.03125 13.703125 -13.21875 15.484375 -15 C 17.265625 -16.78125 19.507812 -17.671875 22.21875 -17.671875 C 24.914062 -17.671875 27.15625 -16.78125 28.9375 -15 C 30.71875 -13.21875 31.609375 -11.03125 31.609375 -8.4375 C 31.609375 -5.84375 30.691406 -3.597656 28.859375 -1.703125 C 27.023438 0.191406 24.8125 1.140625 22.21875 1.140625 Z M 22.21875 1.140625 "/></g></g></g><g fill="#ffffff" fill-opacity="1"><g transform="translate(206.386885, 245.708933)"><g><path d="M 45.5625 -109.4375 C 41.769531 -109.4375 38.984375 -108.707031 37.203125 -107.25 C 35.421875 -105.789062 34.335938 -104.0625 33.953125 -102.0625 C 33.578125 -100.0625 33.390625 -97.492188 33.390625 -94.359375 L 33.390625 -85.4375 L 53.65625 -85.4375 L 53.65625 -74.25 L 33.390625 -74.25 L 33.390625 0 L 19.453125 0 L 19.296875 -74.25 L 7.625 -74.25 L 7.625 -85.4375 L 19.296875 -85.4375 L 19.296875 -96.625 C 19.296875 -111.96875 26.914062 -119.640625 42.15625 -119.640625 C 44.3125 -119.640625 46.5 -119.503906 48.71875 -119.234375 C 50.9375 -118.972656 52.582031 -118.675781 53.65625 -118.34375 L 53.65625 -108.625 C 51.28125 -109.164062 48.582031 -109.4375 45.5625 -109.4375 Z M 45.5625 -109.4375 "/></g></g></g><g fill="#ffffff" fill-opacity="1"><g transform="translate(266.856593, 245.708933)"><g><path d="M 34.046875 0.65625 C 27.671875 0.65625 22.914062 -0.367188 19.78125 -2.421875 C 16.644531 -4.484375 14.671875 -7.160156 13.859375 -10.453125 C 13.046875 -13.753906 12.640625 -18.050781 12.640625 -23.34375 L 12.8125 -121.59375 L 26.75 -121.59375 L 26.75 -25.453125 C 26.75 -21.347656 26.9375 -18.296875 27.3125 -16.296875 C 27.695312 -14.296875 28.722656 -12.703125 30.390625 -11.515625 C 32.066406 -10.328125 34.742188 -9.734375 38.421875 -9.734375 C 40.691406 -9.734375 42.691406 -9.894531 44.421875 -10.21875 L 44.421875 -0.15625 C 41.503906 0.382812 38.046875 0.65625 34.046875 0.65625 Z M 34.046875 0.65625 "/></g></g></g><g fill="#ffffff" fill-opacity="1"><g transform="translate(317.761397, 245.708933)"><g><path d="M 11.515625 -85.4375 L 25.453125 -85.4375 L 25.453125 -71.828125 L 26.421875 -71.828125 C 27.828125 -75.609375 30.335938 -78.820312 33.953125 -81.46875 C 37.578125 -84.113281 42.148438 -85.4375 47.671875 -85.4375 C 49.398438 -85.4375 50.773438 -85.351562 51.796875 -85.1875 C 52.828125 -85.03125 53.988281 -84.738281 55.28125 -84.3125 L 54.796875 -70.6875 C 53.066406 -71.226562 51.578125 -71.601562 50.328125 -71.8125 C 49.085938 -72.03125 47.5 -72.140625 45.5625 -72.140625 C 32.15625 -72.140625 25.453125 -64.195312 25.453125 -48.3125 L 25.453125 0 L 11.515625 0 Z M 11.515625 -85.4375 "/></g></g></g></svg>