<svg xmlns="http://www.w3.org/2000/svg" xmlns:xlink="http://www.w3.org/1999/xlink" width="500" zoomAndPan="magnify" viewBox="0 0 375 374.999991" height="500" preserveAspectRatio="xMidYMid meet" version="1.0"><defs><g/></defs><g fill="#b35160" fill-opacity="1"><g transform="translate(0.0117232, 240.077547)"><g><path d="M 121.808594 -98.125 C 122.773438 -97.15625 123.417969 -96.996094 124.546875 -97.800781 L 137.277344 -107.628906 C 138.402344 -108.433594 138.402344 -110.046875 137.4375 -110.851562 L 130.1875 -118.265625 C 129.21875 -119.230469 127.769531 -119.070312 126.804688 -117.941406 L 116.976562 -105.375 C 116.167969 -104.246094 116.332031 -103.601562 117.457031 -102.472656 Z M 75.082031 -118.101562 C 75.246094 -116.8125 75.890625 -116.492188 77.339844 -116.492188 L 83.621094 -116.492188 C 84.910156 -116.492188 85.394531 -116.8125 85.71875 -118.101562 L 87.8125 -134.054688 C 87.972656 -135.503906 87.007812 -136.632812 85.71875 -136.632812 L 75.082031 -136.632812 C 73.792969 -136.632812 72.828125 -135.503906 73.148438 -134.054688 Z M 36.414062 -97.640625 C 37.542969 -96.835938 38.023438 -96.996094 39.152344 -97.960938 L 43.664062 -102.472656 C 44.632812 -103.441406 44.632812 -103.925781 43.824219 -105.050781 L 34.15625 -117.941406 C 33.351562 -118.910156 31.742188 -119.070312 30.773438 -118.101562 L 23.363281 -110.691406 C 22.394531 -109.722656 22.558594 -108.113281 23.683594 -107.46875 Z M 25.296875 -64.125 C 25.296875 -65.578125 24.972656 -66.058594 23.363281 -66.222656 L 7.574219 -68.476562 C 6.285156 -68.636719 5.15625 -67.511719 5.15625 -66.222656 L 5.15625 -55.75 C 5.15625 -54.460938 6.285156 -53.332031 7.574219 -53.652344 L 23.363281 -55.75 C 24.972656 -55.910156 25.296875 -56.394531 25.296875 -58.003906 Z M 39.3125 -24.167969 C 38.347656 -25.136719 37.703125 -25.296875 36.574219 -24.328125 L 23.847656 -14.824219 C 22.71875 -13.855469 22.71875 -12.40625 23.683594 -11.441406 L 31.097656 -4.027344 C 32.0625 -3.0625 33.511719 -3.0625 34.320312 -4.351562 L 43.988281 -16.917969 C 44.953125 -18.046875 44.792969 -18.691406 43.664062 -19.816406 Z M 86.039062 -4.027344 C 85.878906 -5.476562 85.234375 -5.800781 83.785156 -5.800781 L 77.5 -5.800781 C 76.210938 -5.800781 75.726562 -5.476562 75.246094 -4.027344 L 73.3125 11.761719 C 73.148438 13.050781 74.117188 14.339844 75.566406 14.339844 L 85.878906 14.339844 C 87.167969 14.339844 88.132812 13.050781 87.972656 11.761719 Z M 80.5625 -107.308594 C 55.105469 -107.308594 34.480469 -86.683594 34.480469 -61.226562 C 34.480469 -35.769531 55.105469 -15.144531 80.5625 -15.144531 C 106.019531 -15.144531 126.640625 -35.769531 126.640625 -61.226562 C 126.640625 -86.683594 106.019531 -107.308594 80.5625 -107.308594 Z M 124.871094 -24.492188 C 123.582031 -25.457031 123.097656 -25.457031 121.96875 -24.328125 L 117.457031 -19.816406 C 116.492188 -19.011719 116.492188 -18.367188 117.296875 -17.078125 L 126.964844 -4.511719 C 127.769531 -3.382812 129.382812 -3.222656 130.347656 -4.1875 L 137.597656 -11.441406 C 138.566406 -12.40625 138.402344 -14.019531 137.4375 -14.824219 Z M 137.597656 -66.542969 C 136.148438 -66.382812 135.828125 -65.898438 135.828125 -64.449219 L 135.828125 -58.164062 C 135.828125 -56.714844 136.148438 -56.230469 137.597656 -55.910156 L 153.550781 -53.816406 C 154.839844 -53.652344 155.964844 -54.78125 155.964844 -56.070312 L 155.964844 -66.382812 C 155.964844 -67.832031 154.839844 -68.800781 153.550781 -68.636719 Z M 137.597656 -66.542969 "/></g></g></g><g fill="#b35160" fill-opacity="1"><g transform="translate(161.132728, 240.077547)"><g><path d="M 8.859375 0 L 8.859375 -19.015625 L 26.578125 -19.015625 L 26.578125 0 Z M 8.859375 0 "/></g></g></g><g fill="#b35160" fill-opacity="1"><g transform="translate(197.465508, 240.077547)"><g><path d="M 59.375 -83.296875 L 59.375 -72.421875 L 39.15625 -72.421875 L 39.15625 0 L 24.171875 0 L 24.171875 -72.421875 L 6.609375 -72.421875 L 6.609375 -83.296875 L 24.171875 -83.296875 L 24.171875 -96.1875 C 24.171875 -102.789062 25.859375 -107.828125 29.234375 -111.296875 C 32.617188 -114.765625 37.671875 -116.5 44.390625 -116.5 L 60.09375 -116.5 L 60.1875 -105.9375 L 47.6875 -105.9375 C 44.3125 -105.9375 42.003906 -105.023438 40.765625 -103.203125 C 39.523438 -101.378906 38.90625 -98.613281 38.90625 -94.90625 L 38.90625 -83.296875 Z M 59.375 -83.296875 "/></g></g></g><g fill="#b35160" fill-opacity="1"><g transform="translate(262.880619, 240.077547)"><g><path d="M 33.359375 1.046875 C 28.835938 1.046875 25.191406 0.429688 22.421875 -0.796875 C 19.660156 -2.035156 17.539062 -3.703125 16.0625 -5.796875 C 14.59375 -7.890625 13.601562 -10.289062 13.09375 -13 C 12.582031 -15.71875 12.328125 -18.523438 12.328125 -21.421875 L 12.328125 -119.71875 L 26.984375 -119.71875 L 26.984375 -22.875 C 26.984375 -18.6875 27.800781 -15.546875 29.4375 -13.453125 C 31.082031 -11.359375 33.378906 -10.203125 36.328125 -9.984375 L 40.84375 -9.90625 L 40.84375 -0.234375 C 39.613281 0.140625 38.328125 0.445312 36.984375 0.6875 C 35.640625 0.925781 34.429688 1.046875 33.359375 1.046875 Z M 33.359375 1.046875 "/></g></g></g><g fill="#b35160" fill-opacity="1"><g transform="translate(310.814103, 240.077547)"><g><path d="M 12.328125 0 L 12.328125 -83.296875 L 26.5 -83.296875 L 26.5 -67.265625 C 27.894531 -71.242188 29.851562 -74.535156 32.375 -77.140625 C 34.90625 -79.742188 37.796875 -81.6875 41.046875 -82.96875 C 44.296875 -84.257812 47.664062 -84.90625 51.15625 -84.90625 C 52.394531 -84.90625 53.601562 -84.820312 54.78125 -84.65625 C 55.96875 -84.5 56.878906 -84.234375 57.515625 -83.859375 L 57.515625 -69.4375 C 56.710938 -69.820312 55.679688 -70.078125 54.421875 -70.203125 C 53.160156 -70.335938 52.097656 -70.40625 51.234375 -70.40625 C 47.910156 -70.625 44.796875 -70.421875 41.890625 -69.796875 C 38.992188 -69.179688 36.441406 -68.125 34.234375 -66.625 C 32.035156 -65.125 30.304688 -63.148438 29.046875 -60.703125 C 27.785156 -58.253906 27.15625 -55.285156 27.15625 -51.796875 L 27.15625 0 Z M 12.328125 0 "/></g></g></g></svg>